<?xml version="1.0" encoding="utf-8"?>
<!-- Generator: Adobe Illustrator 17.0.0, SVG Export Plug-In . SVG Version: 6.00 Build 0)  -->
<!DOCTYPE svg PUBLIC "-//W3C//DTD SVG 1.1//EN" "http://www.w3.org/Graphics/SVG/1.1/DTD/svg11.dtd">
<svg version="1.1" id="Capa_1" xmlns="http://www.w3.org/2000/svg" xmlns:xlink="http://www.w3.org/1999/xlink" x="0px" y="0px"
	 width="216.98px" height="49.63px" viewBox="0 0 216.98 49.63" enable-background="new 0 0 216.98 49.63" xml:space="preserve">
<g>
	
		<path fill="#FFFFFF" stroke="#67C0EF" stroke-width="1.8" stroke-linecap="round" stroke-linejoin="round" stroke-miterlimit="10" d="
		M178.335,9.88c0-4.91,4-8.88,8.92-8.88c4.93,0,8.93,3.97,8.93,8.88c0,4.9-4,8.88-8.93,8.88
		C182.335,18.76,178.335,14.78,178.335,9.88z"/>
	
		<path fill="#FFFFFF" stroke="#67C0EF" stroke-width="1.8" stroke-linecap="round" stroke-linejoin="round" stroke-miterlimit="10" d="
		M119.115,9.88c0-4.91,3.99-8.88,8.92-8.88c4.92,0,8.92,3.97,8.92,8.88c0,4.9-4,8.88-8.92,8.88
		C123.105,18.76,119.115,14.78,119.115,9.88z"/>
	
		<path fill="#FFFFFF" stroke="#288FD4" stroke-width="1.8" stroke-linecap="round" stroke-linejoin="round" stroke-miterlimit="10" d="
		M99.365,9.88c0-4.91,4-8.88,8.92-8.88c4.93,0,8.93,3.97,8.93,8.88c0,4.9-4,8.88-8.93,8.88C103.365,18.76,99.365,14.78,99.365,9.88z
		"/>
	
		<path fill="#FFFFFF" stroke="#67C0EF" stroke-width="1.8" stroke-linecap="round" stroke-linejoin="round" stroke-miterlimit="10" d="
		M59.885,9.88c0-4.91,3.99-8.88,8.92-8.88c4.93,0,8.92,3.97,8.92,8.88c0,4.9-3.99,8.88-8.92,8.88S59.885,14.78,59.885,9.88z"/>
	
		<path fill="#FFFFFF" stroke="#3AA2DB" stroke-width="1.8" stroke-linecap="round" stroke-linejoin="round" stroke-miterlimit="10" d="
		M20.395,9.88c0-4.91,4-8.88,8.92-8.88c4.93,0,8.93,3.97,8.93,8.88c0,4.9-4,8.88-8.93,8.88C24.395,18.76,20.395,14.78,20.395,9.88z"
		/>
	<g>
		
			<path fill="#FFFFFF" stroke="#67C0EF" stroke-width="1.8" stroke-linecap="round" stroke-linejoin="round" stroke-miterlimit="10" d="
			M208.715,17.43c0-4.9,3.99-8.87,8.92-8.87s8.92,3.97,8.92,8.87c0,4.91-3.99,8.88-8.92,8.88S208.715,22.34,208.715,17.43z"/>
		
			<path fill="#FFFFFF" stroke="#288FD4" stroke-width="1.8" stroke-linecap="round" stroke-linejoin="round" stroke-miterlimit="10" d="
			M188.965,17.43c0-4.9,4-8.87,8.93-8.87c4.92,0,8.92,3.97,8.92,8.87c0,4.91-4,8.88-8.92,8.88
			C192.965,26.31,188.965,22.34,188.965,17.43z"/>
		
			<path fill="#FFFFFF" stroke="#3AA2DB" stroke-width="1.8" stroke-linecap="round" stroke-linejoin="round" stroke-miterlimit="10" d="
			M169.225,17.43c0-4.9,4-8.87,8.92-8.87c4.93,0,8.92,3.97,8.92,8.87c0,4.91-3.99,8.88-8.92,8.88
			C173.225,26.31,169.225,22.34,169.225,17.43z"/>
	</g>
	
		<path fill="#FFFFFF" stroke="#288FD4" stroke-width="1.8" stroke-linecap="round" stroke-linejoin="round" stroke-miterlimit="10" d="
		M129.745,17.43c0-4.9,3.99-8.87,8.92-8.87s8.92,3.97,8.92,8.87c0,4.91-3.99,8.88-8.92,8.88S129.745,22.34,129.745,17.43z"/>
	
		<path fill="#FFFFFF" stroke="#3AA2DB" stroke-width="1.8" stroke-linecap="round" stroke-linejoin="round" stroke-miterlimit="10" d="
		M109.995,17.43c0-4.9,4-8.87,8.93-8.87c4.92,0,8.92,3.97,8.92,8.87c0,4.91-4,8.88-8.92,8.88
		C113.995,26.31,109.995,22.34,109.995,17.43z"/>
	
		<path fill="#FFFFFF" stroke="#67C0EF" stroke-width="1.8" stroke-linecap="round" stroke-linejoin="round" stroke-miterlimit="10" d="
		M90.255,17.43c0-4.9,4-8.87,8.92-8.87c4.93,0,8.92,3.97,8.92,8.87c0,4.91-3.99,8.88-8.92,8.88
		C94.255,26.31,90.255,22.34,90.255,17.43z"/>
	
		<path fill="#FFFFFF" stroke="#288FD4" stroke-width="1.8" stroke-linecap="round" stroke-linejoin="round" stroke-miterlimit="10" d="
		M70.515,17.43c0-4.9,3.99-8.87,8.92-8.87s8.92,3.97,8.92,8.87c0,4.91-3.99,8.88-8.92,8.88S70.515,22.34,70.515,17.43z"/>
	
		<path fill="#FFFFFF" stroke="#67C0EF" stroke-width="1.8" stroke-linecap="round" stroke-linejoin="round" stroke-miterlimit="10" d="
		M31.025,17.43c0-4.9,4-8.87,8.93-8.87c4.92,0,8.92,3.97,8.92,8.87c0,4.91-4,8.88-8.92,8.88C35.025,26.31,31.025,22.34,31.025,17.43
		z"/>
	
		<path fill="#FFFFFF" stroke="#288FD4" stroke-width="1.8" stroke-linecap="round" stroke-linejoin="round" stroke-miterlimit="10" d="
		M197.685,24.99c0-4.9,4-8.88,8.93-8.88c4.92,0,8.92,3.98,8.92,8.88s-4,8.88-8.92,8.88C201.685,33.87,197.685,29.89,197.685,24.99z"
		/>
	
		<path fill="#FFFFFF" stroke="#67C0EF" stroke-width="1.8" stroke-linecap="round" stroke-linejoin="round" stroke-miterlimit="10" d="
		M178.335,24.99c0-4.9,4-8.88,8.92-8.88c4.93,0,8.93,3.98,8.93,8.88s-4,8.88-8.93,8.88C182.335,33.87,178.335,29.89,178.335,24.99z"
		/>
	
		<path fill="#FFFFFF" stroke="#288FD4" stroke-width="1.8" stroke-linecap="round" stroke-linejoin="round" stroke-miterlimit="10" d="
		M158.595,24.99c0-4.9,3.99-8.88,8.92-8.88s8.92,3.98,8.92,8.88s-3.99,8.88-8.92,8.88S158.595,29.89,158.595,24.99z"/>
	
		<path fill="#FFFFFF" stroke="#3AA2DB" stroke-width="1.8" stroke-linecap="round" stroke-linejoin="round" stroke-miterlimit="10" d="
		M138.855,24.99c0-4.9,3.99-8.88,8.92-8.88c4.93,0,8.92,3.98,8.92,8.88s-3.99,8.88-8.92,8.88
		C142.845,33.87,138.855,29.89,138.855,24.99z"/>
	
		<path fill="#FFFFFF" stroke="#288FD4" stroke-width="1.8" stroke-linecap="round" stroke-linejoin="round" stroke-miterlimit="10" d="
		M217.035,24.99c0-4.9,4-8.88,8.93-8.88c4.92,0,8.92,3.98,8.92,8.88s-4,8.88-8.92,8.88C221.035,33.87,217.035,29.89,217.035,24.99z"
		/>
	
		<path fill="#FFFFFF" stroke="#3AA2DB" stroke-width="1.8" stroke-linecap="round" stroke-linejoin="round" stroke-miterlimit="10" d="
		M-7.195,17.43c0-4.9,4-8.87,8.92-8.87c4.93,0,8.93,3.97,8.93,8.87c0,4.91-4,8.88-8.93,8.88C-3.195,26.31-7.195,22.34-7.195,17.43z"
		/>
	
		<path fill="#FFFFFF" stroke="#3AA2DB" stroke-width="1.8" stroke-linecap="round" stroke-linejoin="round" stroke-miterlimit="10" d="
		M11.255,17.43c0-4.9,4-8.87,8.92-8.87c4.93,0,8.93,3.97,8.93,8.87c0,4.91-4,8.88-8.93,8.88C15.255,26.31,11.255,22.34,11.255,17.43
		z"/>
	<g>
		
			<path fill="#FFFFFF" stroke="#67C0EF" stroke-width="1.8" stroke-linecap="round" stroke-linejoin="round" stroke-miterlimit="10" d="
			M119.115,24.99c0-4.9,3.99-8.88,8.92-8.88c4.92,0,8.92,3.98,8.92,8.88s-4,8.88-8.92,8.88
			C123.105,33.87,119.115,29.89,119.115,24.99z"/>
		
			<path fill="#FFFFFF" stroke="#288FD4" stroke-width="1.8" stroke-linecap="round" stroke-linejoin="round" stroke-miterlimit="10" d="
			M99.365,24.99c0-4.9,4-8.88,8.92-8.88c4.93,0,8.93,3.98,8.93,8.88s-4,8.88-8.93,8.88C103.365,33.87,99.365,29.89,99.365,24.99z"/>
		
			<path fill="#FFFFFF" stroke="#3AA2DB" stroke-width="1.8" stroke-linecap="round" stroke-linejoin="round" stroke-miterlimit="10" d="
			M79.625,24.99c0-4.9,3.99-8.88,8.92-8.88c4.93,0,8.92,3.98,8.92,8.88s-3.99,8.88-8.92,8.88
			C83.615,33.87,79.625,29.89,79.625,24.99z"/>
	</g>
	<g>
		
			<path fill="#FFFFFF" stroke="#67C0EF" stroke-width="1.8" stroke-linecap="round" stroke-linejoin="round" stroke-miterlimit="10" d="
			M59.885,24.99c0-4.9,3.99-8.88,8.92-8.88c4.93,0,8.92,3.98,8.92,8.88s-3.99,8.88-8.92,8.88
			C63.875,33.87,59.885,29.89,59.885,24.99z"/>
		
			<path fill="#FFFFFF" stroke="#288FD4" stroke-width="1.8" stroke-linecap="round" stroke-linejoin="round" stroke-miterlimit="10" d="
			M40.145,24.99c0-4.9,3.99-8.88,8.92-8.88c4.92,0,8.92,3.98,8.92,8.88s-4,8.88-8.92,8.88C44.135,33.87,40.145,29.89,40.145,24.99z"
			/>
		
			<path fill="#FFFFFF" stroke="#3AA2DB" stroke-width="1.8" stroke-linecap="round" stroke-linejoin="round" stroke-miterlimit="10" d="
			M20.395,24.99c0-4.9,4-8.88,8.92-8.88c4.93,0,8.93,3.98,8.93,8.88s-4,8.88-8.93,8.88C24.395,33.87,20.395,29.89,20.395,24.99z"/>
		
			<path fill="#FFFFFF" stroke="#67C0EF" stroke-width="1.8" stroke-linecap="round" stroke-linejoin="round" stroke-miterlimit="10" d="
			M0.655,24.99c0-4.9,3.99-8.88,8.92-8.88s8.92,3.98,8.92,8.88s-3.99,8.88-8.92,8.88S0.655,29.89,0.655,24.99z"/>
	</g>
	<g>
		
			<path fill="#FFFFFF" stroke="#67C0EF" stroke-width="1.8" stroke-linecap="round" stroke-linejoin="round" stroke-miterlimit="10" d="
			M208.715,32.55c0-4.91,3.99-8.88,8.92-8.88s8.92,3.97,8.92,8.88c0,4.9-3.99,8.88-8.92,8.88S208.715,37.45,208.715,32.55z"/>
		
			<path fill="#FFFFFF" stroke="#288FD4" stroke-width="1.8" stroke-linecap="round" stroke-linejoin="round" stroke-miterlimit="10" d="
			M188.965,32.55c0-4.91,4-8.88,8.93-8.88c4.92,0,8.92,3.97,8.92,8.88c0,4.9-4,8.88-8.92,8.88
			C192.965,41.43,188.965,37.45,188.965,32.55z"/>
		
			<path fill="#FFFFFF" stroke="#3AA2DB" stroke-width="1.8" stroke-linecap="round" stroke-linejoin="round" stroke-miterlimit="10" d="
			M169.225,32.55c0-4.91,4-8.88,8.92-8.88c4.93,0,8.92,3.97,8.92,8.88c0,4.9-3.99,8.88-8.92,8.88
			C173.225,41.43,169.225,37.45,169.225,32.55z"/>
	</g>
	<g>
		
			<path fill="#FFFFFF" stroke="#67C0EF" stroke-width="1.8" stroke-linecap="round" stroke-linejoin="round" stroke-miterlimit="10" d="
			M149.485,32.55c0-4.91,3.99-8.88,8.92-8.88s8.92,3.97,8.92,8.88c0,4.9-3.99,8.88-8.92,8.88
			C153.475,41.43,149.485,37.45,149.485,32.55z"/>
		
			<path fill="#FFFFFF" stroke="#288FD4" stroke-width="1.8" stroke-linecap="round" stroke-linejoin="round" stroke-miterlimit="10" d="
			M129.745,32.55c0-4.91,3.99-8.88,8.92-8.88s8.92,3.97,8.92,8.88c0,4.9-3.99,8.88-8.92,8.88S129.745,37.45,129.745,32.55z"/>
		
			<path fill="#FFFFFF" stroke="#3AA2DB" stroke-width="1.8" stroke-linecap="round" stroke-linejoin="round" stroke-miterlimit="10" d="
			M109.995,32.55c0-4.91,4-8.88,8.93-8.88c4.92,0,8.92,3.97,8.92,8.88c0,4.9-4,8.88-8.92,8.88
			C113.995,41.43,109.995,37.45,109.995,32.55z"/>
	</g>
	
		<path fill="#FFFFFF" stroke="#67C0EF" stroke-width="1.8" stroke-linecap="round" stroke-linejoin="round" stroke-miterlimit="10" d="
		M90.255,32.55c0-4.91,4-8.88,8.92-8.88c4.93,0,8.92,3.97,8.92,8.88c0,4.9-3.99,8.88-8.92,8.88
		C94.255,41.43,90.255,37.45,90.255,32.55z"/>
	
		<path fill="#FFFFFF" stroke="#288FD4" stroke-width="1.8" stroke-linecap="round" stroke-linejoin="round" stroke-miterlimit="10" d="
		M70.515,32.55c0-4.91,3.99-8.88,8.92-8.88s8.92,3.97,8.92,8.88c0,4.9-3.99,8.88-8.92,8.88S70.515,37.45,70.515,32.55z"/>
	
		<path fill="#FFFFFF" stroke="#3AA2DB" stroke-width="1.8" stroke-linecap="round" stroke-linejoin="round" stroke-miterlimit="10" d="
		M50.775,32.55c0-4.91,3.99-8.88,8.92-8.88s8.92,3.97,8.92,8.88c0,4.9-3.99,8.88-8.92,8.88S50.775,37.45,50.775,32.55z"/>
	
		<path fill="#FFFFFF" stroke="#67C0EF" stroke-width="1.8" stroke-linecap="round" stroke-linejoin="round" stroke-miterlimit="10" d="
		M31.025,32.55c0-4.91,4-8.88,8.93-8.88c4.92,0,8.92,3.97,8.92,8.88c0,4.9-4,8.88-8.92,8.88C35.025,41.43,31.025,37.45,31.025,32.55
		z"/>
	
		<path fill="#FFFFFF" stroke="#288FD4" stroke-width="1.8" stroke-linecap="round" stroke-linejoin="round" stroke-miterlimit="10" d="
		M197.685,40.1c0-4.9,4-8.88,8.93-8.88c4.92,0,8.92,3.98,8.92,8.88c0,4.91-4,8.88-8.92,8.88
		C201.685,48.98,197.685,45.01,197.685,40.1z"/>
	
		<path fill="#FFFFFF" stroke="#288FD4" stroke-width="1.8" stroke-linecap="round" stroke-linejoin="round" stroke-miterlimit="10" d="
		M217.035,40.1c0-4.9,4-8.88,8.93-8.88c4.92,0,8.92,3.98,8.92,8.88c0,4.91-4,8.88-8.92,8.88
		C221.035,48.98,217.035,45.01,217.035,40.1z"/>
	
		<path fill="#FFFFFF" stroke="#67C0EF" stroke-width="1.8" stroke-linecap="round" stroke-linejoin="round" stroke-miterlimit="10" d="
		M178.335,40.1c0-4.9,4-8.88,8.92-8.88c4.93,0,8.93,3.98,8.93,8.88c0,4.91-4,8.88-8.93,8.88
		C182.335,48.98,178.335,45.01,178.335,40.1z"/>
	
		<path fill="#FFFFFF" stroke="#288FD4" stroke-width="1.8" stroke-linecap="round" stroke-linejoin="round" stroke-miterlimit="10" d="
		M158.595,40.1c0-4.9,3.99-8.88,8.92-8.88s8.92,3.98,8.92,8.88c0,4.91-3.99,8.88-8.92,8.88S158.595,45.01,158.595,40.1z"/>
	
		<path fill="#FFFFFF" stroke="#3AA2DB" stroke-width="1.8" stroke-linecap="round" stroke-linejoin="round" stroke-miterlimit="10" d="
		M138.855,40.1c0-4.9,3.99-8.88,8.92-8.88c4.93,0,8.92,3.98,8.92,8.88c0,4.91-3.99,8.88-8.92,8.88
		C142.845,48.98,138.855,45.01,138.855,40.1z"/>
	
		<path fill="#FFFFFF" stroke="#3AA2DB" stroke-width="1.8" stroke-linecap="round" stroke-linejoin="round" stroke-miterlimit="10" d="
		M11.255,32.55c0-4.91,4-8.88,8.92-8.88c4.93,0,8.93,3.97,8.93,8.88c0,4.9-4,8.88-8.93,8.88C15.255,41.43,11.255,37.45,11.255,32.55
		z"/>
	
		<path fill="#FFFFFF" stroke="#3AA2DB" stroke-width="1.8" stroke-linecap="round" stroke-linejoin="round" stroke-miterlimit="10" d="
		M-7.195,32.55c0-4.91,4-8.88,8.92-8.88c4.93,0,8.93,3.97,8.93,8.88c0,4.9-4,8.88-8.93,8.88C-3.195,41.43-7.195,37.45-7.195,32.55z"
		/>
	<g>
		
			<path fill="#FFFFFF" stroke="#67C0EF" stroke-width="1.8" stroke-linecap="round" stroke-linejoin="round" stroke-miterlimit="10" d="
			M119.115,40.1c0-4.9,3.99-8.88,8.92-8.88c4.92,0,8.92,3.98,8.92,8.88c0,4.91-4,8.88-8.92,8.88
			C123.105,48.98,119.115,45.01,119.115,40.1z"/>
		
			<path fill="#FFFFFF" stroke="#288FD4" stroke-width="1.8" stroke-linecap="round" stroke-linejoin="round" stroke-miterlimit="10" d="
			M99.365,40.1c0-4.9,4-8.88,8.92-8.88c4.93,0,8.93,3.98,8.93,8.88c0,4.91-4,8.88-8.93,8.88C103.365,48.98,99.365,45.01,99.365,40.1
			z"/>
		
			<path fill="#FFFFFF" stroke="#3AA2DB" stroke-width="1.8" stroke-linecap="round" stroke-linejoin="round" stroke-miterlimit="10" d="
			M79.625,40.1c0-4.9,3.99-8.88,8.92-8.88c4.93,0,8.92,3.98,8.92,8.88c0,4.91-3.99,8.88-8.92,8.88S79.625,45.01,79.625,40.1z"/>
	</g>
	<g>
		
			<path fill="#FFFFFF" stroke="#67C0EF" stroke-width="1.8" stroke-linecap="round" stroke-linejoin="round" stroke-miterlimit="10" d="
			M59.885,40.1c0-4.9,3.99-8.88,8.92-8.88c4.93,0,8.92,3.98,8.92,8.88c0,4.91-3.99,8.88-8.92,8.88S59.885,45.01,59.885,40.1z"/>
		
			<path fill="#FFFFFF" stroke="#288FD4" stroke-width="1.8" stroke-linecap="round" stroke-linejoin="round" stroke-miterlimit="10" d="
			M40.145,40.1c0-4.9,3.99-8.88,8.92-8.88c4.92,0,8.92,3.98,8.92,8.88c0,4.91-4,8.88-8.92,8.88
			C44.135,48.98,40.145,45.01,40.145,40.1z"/>
		
			<path fill="#FFFFFF" stroke="#3AA2DB" stroke-width="1.8" stroke-linecap="round" stroke-linejoin="round" stroke-miterlimit="10" d="
			M20.395,40.1c0-4.9,4-8.88,8.92-8.88c4.93,0,8.93,3.98,8.93,8.88c0,4.91-4,8.88-8.93,8.88C24.395,48.98,20.395,45.01,20.395,40.1z
			"/>
		
			<path fill="#FFFFFF" stroke="#67C0EF" stroke-width="1.8" stroke-linecap="round" stroke-linejoin="round" stroke-miterlimit="10" d="
			M0.655,40.1c0-4.9,3.99-8.88,8.92-8.88s8.92,3.98,8.92,8.88c0,4.91-3.99,8.88-8.92,8.88S0.655,45.01,0.655,40.1z"/>
	</g>
	<g>
		
			<path fill="#FFFFFF" stroke="#67C0EF" stroke-width="1.8" stroke-linecap="round" stroke-linejoin="round" stroke-miterlimit="10" d="
			M208.715,47.66c0-4.9,3.99-8.88,8.92-8.88s8.92,3.98,8.92,8.88s-3.99,8.88-8.92,8.88S208.715,52.56,208.715,47.66z"/>
		
			<path fill="#FFFFFF" stroke="#288FD4" stroke-width="1.8" stroke-linecap="round" stroke-linejoin="round" stroke-miterlimit="10" d="
			M188.965,47.66c0-4.9,4-8.88,8.93-8.88c4.92,0,8.92,3.98,8.92,8.88s-4,8.88-8.92,8.88C192.965,56.54,188.965,52.56,188.965,47.66z
			"/>
		
			<path fill="#FFFFFF" stroke="#3AA2DB" stroke-width="1.8" stroke-linecap="round" stroke-linejoin="round" stroke-miterlimit="10" d="
			M169.225,47.66c0-4.9,4-8.88,8.92-8.88c4.93,0,8.92,3.98,8.92,8.88s-3.99,8.88-8.92,8.88
			C173.225,56.54,169.225,52.56,169.225,47.66z"/>
	</g>
	<g>
		
			<path fill="#FFFFFF" stroke="#67C0EF" stroke-width="1.8" stroke-linecap="round" stroke-linejoin="round" stroke-miterlimit="10" d="
			M149.485,47.66c0-4.9,3.99-8.88,8.92-8.88s8.92,3.98,8.92,8.88s-3.99,8.88-8.92,8.88S149.485,52.56,149.485,47.66z"/>
		
			<path fill="#FFFFFF" stroke="#288FD4" stroke-width="1.8" stroke-linecap="round" stroke-linejoin="round" stroke-miterlimit="10" d="
			M129.745,47.66c0-4.9,3.99-8.88,8.92-8.88s8.92,3.98,8.92,8.88s-3.99,8.88-8.92,8.88S129.745,52.56,129.745,47.66z"/>
		
			<path fill="#FFFFFF" stroke="#3AA2DB" stroke-width="1.8" stroke-linecap="round" stroke-linejoin="round" stroke-miterlimit="10" d="
			M109.995,47.66c0-4.9,4-8.88,8.93-8.88c4.92,0,8.92,3.98,8.92,8.88s-4,8.88-8.92,8.88C113.995,56.54,109.995,52.56,109.995,47.66z
			"/>
	</g>
	
		<path fill="#FFFFFF" stroke="#67C0EF" stroke-width="1.8" stroke-linecap="round" stroke-linejoin="round" stroke-miterlimit="10" d="
		M90.255,47.66c0-4.9,4-8.88,8.92-8.88c4.93,0,8.92,3.98,8.92,8.88s-3.99,8.88-8.92,8.88C94.255,56.54,90.255,52.56,90.255,47.66z"
		/>
	
		<path fill="#FFFFFF" stroke="#288FD4" stroke-width="1.8" stroke-linecap="round" stroke-linejoin="round" stroke-miterlimit="10" d="
		M70.515,47.66c0-4.9,3.99-8.88,8.92-8.88s8.92,3.98,8.92,8.88s-3.99,8.88-8.92,8.88S70.515,52.56,70.515,47.66z"/>
	
		<path fill="#FFFFFF" stroke="#3AA2DB" stroke-width="1.8" stroke-linecap="round" stroke-linejoin="round" stroke-miterlimit="10" d="
		M50.775,47.66c0-4.9,3.99-8.88,8.92-8.88s8.92,3.98,8.92,8.88s-3.99,8.88-8.92,8.88S50.775,52.56,50.775,47.66z"/>
	
		<path fill="#FFFFFF" stroke="#67C0EF" stroke-width="1.8" stroke-linecap="round" stroke-linejoin="round" stroke-miterlimit="10" d="
		M31.025,47.66c0-4.9,4-8.88,8.93-8.88c4.92,0,8.92,3.98,8.92,8.88s-4,8.88-8.92,8.88C35.025,56.54,31.025,52.56,31.025,47.66z"/>
	
		<path fill="#FFFFFF" stroke="#3AA2DB" stroke-width="1.8" stroke-linecap="round" stroke-linejoin="round" stroke-miterlimit="10" d="
		M11.255,47.66c0-4.9,4-8.88,8.92-8.88c4.93,0,8.93,3.98,8.93,8.88s-4,8.88-8.93,8.88C15.255,56.54,11.255,52.56,11.255,47.66z"/>
</g>
</svg>
